<svg width="75" height="23" viewBox="0 0 75 23" fill="none" xmlns="http://www.w3.org/2000/svg">
<path d="M18.3662 10.2617C18.848 13.4714 19.2061 15.6003 19.4404 16.6484C19.6748 17.6901 19.9059 18.6829 20.1338 19.627C20.3617 20.571 20.5439 21.3555 20.6807 21.9805C20.2184 22.1302 19.6618 22.2051 19.0107 22.2051C18.3662 22.2051 17.9105 22.1302 17.6436 21.9805C17.1357 21.0169 16.5303 17.9896 15.8271 12.8984C15.71 12.0521 15.6416 11.5671 15.6221 11.4434C14.4176 14.2949 13.6038 16.8438 13.1807 19.0898C13.0244 19.9102 12.9463 20.4863 12.9463 20.8184C12.9463 21.1504 12.9463 21.3457 12.9463 21.4043C12.5426 21.6908 12.012 21.834 11.3545 21.834C10.6318 21.834 10.1891 21.6908 10.0264 21.4043C9.92871 21.1243 9.69434 20.4049 9.32324 19.2461C8.32715 16.1211 7.44173 13.4844 6.66699 11.3359L6.62793 11.9023C6.53027 13.9922 6.40332 15.4668 6.24707 16.3262C6.09082 17.1855 5.94759 17.8919 5.81738 18.4453C5.68717 18.9922 5.53092 19.4805 5.34863 19.9102C5.17285 20.3333 4.97103 20.724 4.74316 21.082C4.22233 21.9154 3.57454 22.332 2.7998 22.332C2.15527 22.332 1.64095 22.0977 1.25684 21.6289C1.07454 21.4076 0.983398 21.1699 0.983398 20.916C1.53678 20.5449 2.0446 20.0371 2.50684 19.3926C2.96908 18.748 3.34668 18.071 3.63965 17.3613C3.93262 16.6517 4.18652 15.8932 4.40137 15.0859C4.85059 13.4062 5.0752 11.9512 5.0752 10.7207C5.0752 10.3171 5.0459 10.0566 4.9873 9.93945C4.92871 9.81576 4.88639 9.72461 4.86035 9.66602C4.83431 9.60091 4.78223 9.54232 4.7041 9.49023C4.62598 9.43815 4.57389 9.4056 4.54785 9.39258C4.52832 9.37956 4.46973 9.35677 4.37207 9.32422C4.27441 9.28516 4.21908 9.26237 4.20605 9.25586C4.10189 9.12565 4.0498 8.91081 4.0498 8.61133C4.0498 8.30534 4.06283 8.10026 4.08887 7.99609C4.41439 7.93099 4.85059 7.89844 5.39746 7.89844C5.95085 7.89844 6.6735 7.93099 7.56543 7.99609C7.87793 8.0612 8.87728 10.2585 10.5635 14.5879C11.2015 16.2285 11.6019 17.2051 11.7646 17.5176C12.1162 16.3197 13.2425 13.1523 15.1436 8.01562C15.7946 7.97005 16.221 7.94727 16.4229 7.94727C16.6312 7.94727 16.859 7.98958 17.1064 8.07422C17.3604 8.15234 17.611 8.38997 17.8584 8.78711C18.1058 9.18424 18.2751 9.67578 18.3662 10.2617ZM72.6924 10.2617C73.1742 13.4714 73.5322 15.6003 73.7666 16.6484C74.001 17.6901 74.2321 18.6829 74.46 19.627C74.6878 20.571 74.8701 21.3555 75.0068 21.9805C74.5446 22.1302 73.988 22.2051 73.3369 22.2051C72.6924 22.2051 72.2367 22.1302 71.9697 21.9805C71.4619 21.0169 70.8564 17.9896 70.1533 12.8984C70.0361 12.0521 69.9678 11.5671 69.9482 11.4434C68.7438 14.2949 67.93 16.8438 67.5068 19.0898C67.3506 19.9102 67.2725 20.4863 67.2725 20.8184C67.2725 21.1504 67.2725 21.3457 67.2725 21.4043C66.8688 21.6908 66.3382 21.834 65.6807 21.834C64.958 21.834 64.5153 21.6908 64.3525 21.4043C64.2549 21.1243 64.0205 20.4049 63.6494 19.2461C62.6533 16.1211 61.7679 13.4844 60.9932 11.3359L60.9541 11.9023C60.8564 13.9922 60.7295 15.4668 60.5732 16.3262C60.417 17.1855 60.2738 17.8919 60.1436 18.4453C60.0133 18.9922 59.8571 19.4805 59.6748 19.9102C59.499 20.3333 59.2972 20.724 59.0693 21.082C58.5485 21.9154 57.9007 22.332 57.126 22.332C56.4814 22.332 55.9671 22.0977 55.583 21.6289C55.4007 21.4076 55.3096 21.1699 55.3096 20.916C55.863 20.5449 56.3708 20.0371 56.833 19.3926C57.2952 18.748 57.6729 18.071 57.9658 17.3613C58.2588 16.6517 58.5127 15.8932 58.7275 15.0859C59.1768 13.4062 59.4014 11.9512 59.4014 10.7207C59.4014 10.3171 59.3721 10.0566 59.3135 9.93945C59.2549 9.81576 59.2126 9.72461 59.1865 9.66602C59.1605 9.60091 59.1084 9.54232 59.0303 9.49023C58.9521 9.43815 58.9001 9.4056 58.874 9.39258C58.8545 9.37956 58.7959 9.35677 58.6982 9.32422C58.6006 9.28516 58.5452 9.26237 58.5322 9.25586C58.4281 9.12565 58.376 8.91081 58.376 8.61133C58.376 8.30534 58.389 8.10026 58.415 7.99609C58.7406 7.93099 59.1768 7.89844 59.7236 7.89844C60.277 7.89844 60.9997 7.93099 61.8916 7.99609C62.2041 8.0612 63.2035 10.2585 64.8896 14.5879C65.5277 16.2285 65.9281 17.2051 66.0908 17.5176C66.4424 16.3197 67.5687 13.1523 69.4697 8.01562C70.1208 7.97005 70.5472 7.94727 70.749 7.94727C70.9574 7.94727 71.1852 7.98958 71.4326 8.07422C71.6865 8.15234 71.9372 8.38997 72.1846 8.78711C72.432 9.18424 72.6012 9.67578 72.6924 10.2617Z" fill="black"/>
<path d="M41.252 16.126C41.252 17.3857 41.4619 19.3438 41.8818 22C41.1396 22.2539 40.1826 22.3809 39.0107 22.3809C37.8486 22.3809 37.0576 22.2539 36.6377 22L36.9307 17.2832L37.0186 13.0938C35.0264 9.5 33.7373 7.2832 33.1514 6.44336C32.0869 4.91016 31.3057 3.9873 30.8076 3.6748C30.6221 3.54785 30.1436 3.45508 29.3721 3.39648C29.2061 2.92773 29.1377 2.52734 29.167 2.19531C29.9678 1.74609 30.6807 1.43848 31.3057 1.27246C31.9307 1.09668 32.5068 1.00879 33.0342 1.00879C33.5615 1.00879 33.9033 1.01367 34.0596 1.02344C34.0986 1.0625 34.2451 1.2041 34.499 1.44824C34.7529 1.68262 34.9775 1.90723 35.1729 2.12207C35.3682 2.32715 35.6562 2.69336 36.0371 3.2207C36.418 3.74805 36.7842 4.32422 37.1357 4.94922C38.0049 6.50195 38.918 8.52344 39.875 11.0137C41.9844 6.25781 43.083 3.4209 43.1709 2.50293C43.1904 2.34668 43.2002 2.08789 43.2002 1.72656C43.2002 1.36523 43.1123 1.05273 42.9365 0.789062C42.9365 0.691406 43.0781 0.603516 43.3613 0.525391C43.6445 0.4375 43.9326 0.393555 44.2256 0.393555C45.0947 0.393555 45.749 0.671875 46.1885 1.22852C46.6377 1.77539 46.8623 2.35156 46.8623 2.95703C46.8623 3.5625 46.7451 4.14844 46.5107 4.71484C46.2861 5.28125 45.9639 5.86719 45.5439 6.47266C45.1338 7.06836 44.6992 7.68359 44.2402 8.31836C42.9707 10.0566 41.9551 11.7559 41.1934 13.416L41.252 16.126Z" fill="#6154B2"/>
</svg>
